<svg width="1054" height="235" viewBox="0 0 1054 235" fill="none" xmlns="http://www.w3.org/2000/svg">
<path d="M975.992 164.272H975.949C975.949 183.769 991.806 199.625 1011.3 199.625H1053.64V232.829H1011.3C973.502 232.829 942.767 202.073 942.767 164.294H942.724V99.8447H909.457V66.5773H942.724V0H975.992V66.556H1053.64V99.8234H975.992V164.272ZM266.181 133.091V232.914H299.449V99.8234H266.181V133.091ZM0 133.091V232.914H33.2674V99.8234H0V133.091ZM99.8234 66.5347H33.2674V99.8021H133.091V66.5347H99.8234ZM232.914 66.5347H166.358V99.8021H266.181V66.5347H232.914ZM399.272 66.5347H366.005V99.8021H465.828V66.5347H399.272ZM133.091 133.091V232.914H166.358V99.8234H133.091V133.091ZM698.721 144.457C698.721 144.286 698.721 144.116 698.721 143.946V140.264H698.615C696.422 99.2274 662.346 66.4922 620.757 66.4922V66.5773H598.919V99.8021H565.652V66.5347H532.384V232.893H565.652V133.069H598.919V99.8447H621.097V99.8021C645.574 99.9937 665.433 119.937 665.433 144.457V166.358H665.454V232.914H698.721V166.358H698.7V144.457H698.721ZM332.716 133.091V232.914H365.984V99.8234H332.716V133.091ZM902.965 144.457C902.965 151.268 902.199 157.887 900.773 164.251H758.594C766.682 186.131 787.753 201.796 812.401 201.796C826.321 201.796 839.091 196.816 849.031 188.536H891.472C875.977 216.227 846.349 235 812.401 235C762.468 235 721.857 194.39 721.857 144.457C721.857 94.5236 762.468 53.9131 812.401 53.9131C862.334 53.9131 902.944 94.5236 902.944 144.457H902.965ZM868.144 130.984C862.057 105.847 839.389 87.1167 812.422 87.1167C785.455 87.1167 762.766 105.847 756.7 130.984H868.165H868.144Z" fill="url(#paint0_linear_10028_57)"/>
<defs>
<linearGradient id="paint0_linear_10028_57" x1="0" y1="117.511" x2="1053.64" y2="117.511" gradientUnits="userSpaceOnUse">
<stop offset="0.26" stop-color="#FF4C00"/>
<stop offset="0.3" stop-color="#F15724"/>
<stop offset="0.36" stop-color="#DE6657"/>
<stop offset="0.42" stop-color="#CE7382"/>
<stop offset="0.47" stop-color="#C27DA3"/>
<stop offset="0.52" stop-color="#BA85BA"/>
<stop offset="0.57" stop-color="#B489C9"/>
<stop offset="0.61" stop-color="#B38BCE"/>
<stop offset="0.64" stop-color="#A392D1"/>
<stop offset="0.71" stop-color="#79A7D8"/>
<stop offset="0.79" stop-color="#36C8E5"/>
<stop offset="0.85" stop-color="#00E4F0"/>
</linearGradient>
</defs>
</svg>
